<svg class="main-svg" xmlns="http://www.w3.org/2000/svg" xmlns:xlink="http://www.w3.org/1999/xlink" width="700" height="150" viewBox="0 0 700 150"><rect x="0" y="0" width="700" height="150" style="fill: rgb(0, 0, 0); fill-opacity: 0;"/><defs id="defs-e22daa"><g class="clips"><clipPath id="clipe22daaxyplot" class="plotclip"><rect width="540" height="85"/></clipPath><clipPath class="axesclip" id="clipe22daax"><rect x="80" y="0" width="540" height="150"/></clipPath><clipPath class="axesclip" id="clipe22daay"><rect x="0" y="25" width="700" height="85"/></clipPath><clipPath class="axesclip" id="clipe22daaxy"><rect x="80" y="25" width="540" height="85"/></clipPath></g><g class="gradients"/></defs><g class="bglayer"><rect class="bg" x="80" y="25" width="540" height="85" style="fill: rgb(255, 255, 255); fill-opacity: 1; stroke-width: 0;"/></g><g class="layer-below"><g class="imagelayer"/><g class="shapelayer"/></g><g class="cartesianlayer"><g class="subplot xy"><g class="layer-subplot"><g class="shapelayer"/><g class="imagelayer"/></g><g class="gridlayer"><g class="x"><path class="xgrid crisp" d="M0,25v85" transform="translate(81.35,0)" style="stroke: rgb(244, 244, 244); stroke-opacity: 1; stroke-width: 1px;"/><path class="xgrid crisp" d="M0,25v85" transform="translate(121.75,0)" style="stroke: rgb(244, 244, 244); stroke-opacity: 1; stroke-width: 1px;"/><path class="xgrid crisp" d="M0,25v85" transform="translate(162.14,0)" style="stroke: rgb(244, 244, 244); stroke-opacity: 1; stroke-width: 1px;"/><path class="xgrid crisp" d="M0,25v85" transform="translate(202.54000000000002,0)" style="stroke: rgb(244, 244, 244); stroke-opacity: 1; stroke-width: 1px;"/><path class="xgrid crisp" d="M0,25v85" transform="translate(242.94,0)" style="stroke: rgb(244, 244, 244); stroke-opacity: 1; stroke-width: 1px;"/><path class="xgrid crisp" d="M0,25v85" transform="translate(283.34000000000003,0)" style="stroke: rgb(244, 244, 244); stroke-opacity: 1; stroke-width: 1px;"/><path class="xgrid crisp" d="M0,25v85" transform="translate(323.74,0)" style="stroke: rgb(244, 244, 244); stroke-opacity: 1; stroke-width: 1px;"/><path class="xgrid crisp" d="M0,25v85" transform="translate(364.14,0)" style="stroke: rgb(244, 244, 244); stroke-opacity: 1; stroke-width: 1px;"/><path class="xgrid crisp" d="M0,25v85" transform="translate(404.54,0)" style="stroke: rgb(244, 244, 244); stroke-opacity: 1; stroke-width: 1px;"/><path class="xgrid crisp" d="M0,25v85" transform="translate(444.94,0)" style="stroke: rgb(244, 244, 244); stroke-opacity: 1; stroke-width: 1px;"/><path class="xgrid crisp" d="M0,25v85" transform="translate(485.34,0)" style="stroke: rgb(244, 244, 244); stroke-opacity: 1; stroke-width: 1px;"/><path class="xgrid crisp" d="M0,25v85" transform="translate(525.74,0)" style="stroke: rgb(244, 244, 244); stroke-opacity: 1; stroke-width: 1px;"/><path class="xgrid crisp" d="M0,25v85" transform="translate(566.13,0)" style="stroke: rgb(244, 244, 244); stroke-opacity: 1; stroke-width: 1px;"/><path class="xgrid crisp" d="M0,25v85" transform="translate(606.53,0)" style="stroke: rgb(244, 244, 244); stroke-opacity: 1; stroke-width: 1px;"/></g><g class="y"><path class="ygrid crisp" d="M80,0h540" transform="translate(0,104.33)" style="stroke: rgb(240, 240, 240); stroke-opacity: 1; stroke-width: 1px;"/><path class="ygrid crisp" d="M80,0h540" transform="translate(0,85.44)" style="stroke: rgb(240, 240, 240); stroke-opacity: 1; stroke-width: 1px;"/><path class="ygrid crisp" d="M80,0h540" transform="translate(0,66.56)" style="stroke: rgb(240, 240, 240); stroke-opacity: 1; stroke-width: 1px;"/><path class="ygrid crisp" d="M80,0h540" transform="translate(0,47.67)" style="stroke: rgb(240, 240, 240); stroke-opacity: 1; stroke-width: 1px;"/><path class="ygrid crisp" d="M80,0h540" transform="translate(0,28.78)" style="stroke: rgb(240, 240, 240); stroke-opacity: 1; stroke-width: 1px;"/></g></g><g class="zerolinelayer"/><path class="xlines-below"/><path class="ylines-below"/><g class="overlines-below"/><g class="xaxislayer-below"/><g class="yaxislayer-below"/><g class="overaxes-below"/><g class="plot" transform="translate(80, 25)" clip-path="url(#clipe22daaxyplot)"><g class="scatterlayer mlayer"><g class="trace scatter traceabbc1e28-ef5f-4331-b29a-37d7b27481fd" style="stroke-miterlimit: 2; opacity: 1;"><g class="fills"/><g class="errorbars"/><g class="lines"><path class="js-line" d="M2.69,4.39L6.73,37.67L13.47,52.42L22.89,58.89L35.01,64.37L49.83,68.46L67.33,70.8L87.53,72.75L110.42,70.95L136.01,73.79L164.29,73.39L195.26,75.64L228.93,75.26L304.34,74.45L346.08,75.75L390.52,76.81L437.66,75.49L540,77.61" style="vector-effect: non-scaling-stroke; fill: none; stroke: rgb(31, 119, 180); stroke-opacity: 1; stroke-width: 2px; opacity: 1;"/></g><g class="points"><path class="point" transform="translate(2.69,4.39)" d="M0.5,0A0.5,0.5 0 1,1 0,-0.5A0.5,0.5 0 0,1 0.5,0Z" style="opacity: 1; stroke-width: 0px; fill: rgb(31, 119, 180); fill-opacity: 1;"/><path class="point" transform="translate(6.73,37.67)" d="M0.5,0A0.5,0.5 0 1,1 0,-0.5A0.5,0.5 0 0,1 0.5,0Z" style="opacity: 1; stroke-width: 0px; fill: rgb(31, 119, 180); fill-opacity: 1;"/><path class="point" transform="translate(13.47,52.42)" d="M0.5,0A0.5,0.5 0 1,1 0,-0.5A0.5,0.5 0 0,1 0.5,0Z" style="opacity: 1; stroke-width: 0px; fill: rgb(31, 119, 180); fill-opacity: 1;"/><path class="point" transform="translate(22.89,58.89)" d="M0.5,0A0.5,0.5 0 1,1 0,-0.5A0.5,0.5 0 0,1 0.5,0Z" style="opacity: 1; stroke-width: 0px; fill: rgb(31, 119, 180); fill-opacity: 1;"/><path class="point" transform="translate(35.01,64.37)" d="M0.5,0A0.5,0.5 0 1,1 0,-0.5A0.5,0.5 0 0,1 0.5,0Z" style="opacity: 1; stroke-width: 0px; fill: rgb(31, 119, 180); fill-opacity: 1;"/><path class="point" transform="translate(49.83,68.46)" d="M0.5,0A0.5,0.5 0 1,1 0,-0.5A0.5,0.5 0 0,1 0.5,0Z" style="opacity: 1; stroke-width: 0px; fill: rgb(31, 119, 180); fill-opacity: 1;"/><path class="point" transform="translate(67.33,70.8)" d="M0.5,0A0.5,0.5 0 1,1 0,-0.5A0.5,0.5 0 0,1 0.5,0Z" style="opacity: 1; stroke-width: 0px; fill: rgb(31, 119, 180); fill-opacity: 1;"/><path class="point" transform="translate(87.53,72.75)" d="M0.5,0A0.5,0.5 0 1,1 0,-0.5A0.5,0.5 0 0,1 0.5,0Z" style="opacity: 1; stroke-width: 0px; fill: rgb(31, 119, 180); fill-opacity: 1;"/><path class="point" transform="translate(110.42,70.95)" d="M0.5,0A0.5,0.5 0 1,1 0,-0.5A0.5,0.5 0 0,1 0.5,0Z" style="opacity: 1; stroke-width: 0px; fill: rgb(31, 119, 180); fill-opacity: 1;"/><path class="point" transform="translate(136.01,73.79)" d="M0.5,0A0.5,0.5 0 1,1 0,-0.5A0.5,0.5 0 0,1 0.5,0Z" style="opacity: 1; stroke-width: 0px; fill: rgb(31, 119, 180); fill-opacity: 1;"/><path class="point" transform="translate(164.29,73.39)" d="M0.5,0A0.5,0.5 0 1,1 0,-0.5A0.5,0.5 0 0,1 0.5,0Z" style="opacity: 1; stroke-width: 0px; fill: rgb(31, 119, 180); fill-opacity: 1;"/><path class="point" transform="translate(195.26,75.64)" d="M0.5,0A0.5,0.5 0 1,1 0,-0.5A0.5,0.5 0 0,1 0.5,0Z" style="opacity: 1; stroke-width: 0px; fill: rgb(31, 119, 180); fill-opacity: 1;"/><path class="point" transform="translate(228.93,75.26)" d="M0.5,0A0.5,0.5 0 1,1 0,-0.5A0.5,0.5 0 0,1 0.5,0Z" style="opacity: 1; stroke-width: 0px; fill: rgb(31, 119, 180); fill-opacity: 1;"/><path class="point" transform="translate(265.29,75.21)" d="M0.5,0A0.5,0.5 0 1,1 0,-0.5A0.5,0.5 0 0,1 0.5,0Z" style="opacity: 1; stroke-width: 0px; fill: rgb(31, 119, 180); fill-opacity: 1;"/><path class="point" transform="translate(304.34,74.45)" d="M0.5,0A0.5,0.5 0 1,1 0,-0.5A0.5,0.5 0 0,1 0.5,0Z" style="opacity: 1; stroke-width: 0px; fill: rgb(31, 119, 180); fill-opacity: 1;"/><path class="point" transform="translate(346.08,75.75)" d="M0.5,0A0.5,0.5 0 1,1 0,-0.5A0.5,0.5 0 0,1 0.5,0Z" style="opacity: 1; stroke-width: 0px; fill: rgb(31, 119, 180); fill-opacity: 1;"/><path class="point" transform="translate(390.52,76.81)" d="M0.5,0A0.5,0.5 0 1,1 0,-0.5A0.5,0.5 0 0,1 0.5,0Z" style="opacity: 1; stroke-width: 0px; fill: rgb(31, 119, 180); fill-opacity: 1;"/><path class="point" transform="translate(437.66,75.49)" d="M0.5,0A0.5,0.5 0 1,1 0,-0.5A0.5,0.5 0 0,1 0.5,0Z" style="opacity: 1; stroke-width: 0px; fill: rgb(31, 119, 180); fill-opacity: 1;"/><path class="point" transform="translate(487.48,76.17)" d="M0.5,0A0.5,0.5 0 1,1 0,-0.5A0.5,0.5 0 0,1 0.5,0Z" style="opacity: 1; stroke-width: 0px; fill: rgb(31, 119, 180); fill-opacity: 1;"/><path class="point" transform="translate(540,77.61)" d="M0.5,0A0.5,0.5 0 1,1 0,-0.5A0.5,0.5 0 0,1 0.5,0Z" style="opacity: 1; stroke-width: 0px; fill: rgb(31, 119, 180); fill-opacity: 1;"/></g><g class="text"/></g></g></g><g class="overplot"/><path class="xlines-above crisp" d="M0,0" style="fill: none;"/><path class="ylines-above crisp" d="M0,0" style="fill: none;"/><g class="overlines-above"/><g class="xaxislayer-above"><g class="xtick"><text text-anchor="middle" x="0" y="123" transform="translate(81.35,0)" style="font-family: 'Open Sans', verdana, arial, sans-serif; font-size: 12px; fill: rgb(136, 136, 136); fill-opacity: 1; white-space: pre;">0</text></g><g class="xtick"><text text-anchor="middle" x="0" y="123" transform="translate(121.75,0)" style="font-family: 'Open Sans', verdana, arial, sans-serif; font-size: 12px; fill: rgb(136, 136, 136); fill-opacity: 1; white-space: pre;">30</text></g><g class="xtick"><text text-anchor="middle" x="0" y="123" transform="translate(162.14,0)" style="font-family: 'Open Sans', verdana, arial, sans-serif; font-size: 12px; fill: rgb(136, 136, 136); fill-opacity: 1; white-space: pre;">60</text></g><g class="xtick"><text text-anchor="middle" x="0" y="123" transform="translate(202.54000000000002,0)" style="font-family: 'Open Sans', verdana, arial, sans-serif; font-size: 12px; fill: rgb(136, 136, 136); fill-opacity: 1; white-space: pre;">90</text></g><g class="xtick"><text text-anchor="middle" x="0" y="123" transform="translate(242.94,0)" style="font-family: 'Open Sans', verdana, arial, sans-serif; font-size: 12px; fill: rgb(136, 136, 136); fill-opacity: 1; white-space: pre;">120</text></g><g class="xtick"><text text-anchor="middle" x="0" y="123" transform="translate(283.34000000000003,0)" style="font-family: 'Open Sans', verdana, arial, sans-serif; font-size: 12px; fill: rgb(136, 136, 136); fill-opacity: 1; white-space: pre;">150</text></g><g class="xtick"><text text-anchor="middle" x="0" y="123" transform="translate(323.74,0)" style="font-family: 'Open Sans', verdana, arial, sans-serif; font-size: 12px; fill: rgb(136, 136, 136); fill-opacity: 1; white-space: pre;">180</text></g><g class="xtick"><text text-anchor="middle" x="0" y="123" transform="translate(364.14,0)" style="font-family: 'Open Sans', verdana, arial, sans-serif; font-size: 12px; fill: rgb(136, 136, 136); fill-opacity: 1; white-space: pre;">210</text></g><g class="xtick"><text text-anchor="middle" x="0" y="123" transform="translate(404.54,0)" style="font-family: 'Open Sans', verdana, arial, sans-serif; font-size: 12px; fill: rgb(136, 136, 136); fill-opacity: 1; white-space: pre;">240</text></g><g class="xtick"><text text-anchor="middle" x="0" y="123" transform="translate(444.94,0)" style="font-family: 'Open Sans', verdana, arial, sans-serif; font-size: 12px; fill: rgb(136, 136, 136); fill-opacity: 1; white-space: pre;">270</text></g><g class="xtick"><text text-anchor="middle" x="0" y="123" transform="translate(485.34,0)" style="font-family: 'Open Sans', verdana, arial, sans-serif; font-size: 12px; fill: rgb(136, 136, 136); fill-opacity: 1; white-space: pre;">300</text></g><g class="xtick"><text text-anchor="middle" x="0" y="123" transform="translate(525.74,0)" style="font-family: 'Open Sans', verdana, arial, sans-serif; font-size: 12px; fill: rgb(136, 136, 136); fill-opacity: 1; white-space: pre;">330</text></g><g class="xtick"><text text-anchor="middle" x="0" y="123" transform="translate(566.13,0)" style="font-family: 'Open Sans', verdana, arial, sans-serif; font-size: 12px; fill: rgb(136, 136, 136); fill-opacity: 1; white-space: pre;">360</text></g><g class="xtick"><text text-anchor="middle" x="0" y="123" transform="translate(606.53,0)" style="font-family: 'Open Sans', verdana, arial, sans-serif; font-size: 12px; fill: rgb(136, 136, 136); fill-opacity: 1; white-space: pre;">390</text></g></g><g class="yaxislayer-above"><g class="ytick"><text text-anchor="end" x="79" y="4.199999999999999" transform="translate(0,104.33)" style="font-family: 'Open Sans', verdana, arial, sans-serif; font-size: 12px; fill: rgb(85, 85, 85); fill-opacity: 1; white-space: pre;">20</text></g><g class="ytick"><text text-anchor="end" x="79" y="4.199999999999999" transform="translate(0,85.44)" style="font-family: 'Open Sans', verdana, arial, sans-serif; font-size: 12px; fill: rgb(85, 85, 85); fill-opacity: 1; white-space: pre;">30</text></g><g class="ytick"><text text-anchor="end" x="79" y="4.199999999999999" transform="translate(0,66.56)" style="font-family: 'Open Sans', verdana, arial, sans-serif; font-size: 12px; fill: rgb(85, 85, 85); fill-opacity: 1; white-space: pre;">40</text></g><g class="ytick"><text text-anchor="end" x="79" y="4.199999999999999" transform="translate(0,47.67)" style="font-family: 'Open Sans', verdana, arial, sans-serif; font-size: 12px; fill: rgb(85, 85, 85); fill-opacity: 1; white-space: pre;">50</text></g><g class="ytick"><text text-anchor="end" x="79" y="4.199999999999999" transform="translate(0,28.78)" style="font-family: 'Open Sans', verdana, arial, sans-serif; font-size: 12px; fill: rgb(85, 85, 85); fill-opacity: 1; white-space: pre;">60</text></g></g><g class="overaxes-above"/></g></g><g class="polarlayer"/><g class="ternarylayer"/><g class="geolayer"/><g class="pielayer"/><g class="glimages"/><defs id="topdefs-e22daa"><g class="clips"/></defs><g class="layer-above"><g class="imagelayer"/><g class="shapelayer"/></g><g class="infolayer"><g class="g-gtitle"/><g class="g-xtitle" transform="translate(0,-15)"><text class="xtitle" x="350" y="162" text-anchor="middle" style="font-family: Arial; font-size: 14px; fill: rgb(85, 85, 85); opacity: 1; font-weight: normal; white-space: pre;">\# of plans per agent</text></g><g class="g-ytitle"><text class="ytitle" transform="rotate(-90,42,67.5)" x="42" y="67.5" text-anchor="middle" style="font-family: Arial; font-size: 14px; fill: rgb(85, 85, 85); opacity: 1; font-weight: normal; white-space: pre;">global cost</text></g></g></svg>