<svg class="main-svg" xmlns="http://www.w3.org/2000/svg" xmlns:xlink="http://www.w3.org/1999/xlink" width="700" height="500" viewBox="0 0 700 500"><rect x="0" y="0" width="700" height="500" style="fill: rgb(255, 255, 255); fill-opacity: 1;"/><defs id="defs-fb9f20"><g class="clips"><clipPath id="clipfb9f20geo"><rect x="144.46229273523932" y="100" width="411.07541452952137" height="320"/></clipPath></g><g class="gradients"/></defs><g class="bglayer"/><g class="layer-below"><g class="imagelayer"/><g class="shapelayer"/></g><g class="cartesianlayer"/><g class="polarlayer"/><g class="ternarylayer"/><g class="geolayer"><g class="geo geo" clip-path="url(#clipfb9f20geo)"><g class="layer bg"><rect x="144.46229273523932" y="100" width="411.07541452952137" height="320" style="pointer-events: all; fill: rgb(255, 255, 255); fill-opacity: 1;"/></g><g class="layer land"><path style="stroke: none; fill: rgb(0, 0, 0); fill-opacity: 1;"/></g><g class="layer countries"><path style="fill: none; stroke-miterlimit: 2; stroke: rgb(217, 217, 217); stroke-opacity: 1; stroke-width: 0.5px;"/></g><g class="layer lataxis"><path d="M551.2190045778565,100L555.5377072647607,100.44513101446088" style="fill: none; stroke: rgb(238, 238, 238); stroke-opacity: 1; stroke-width: 0.5px;"/></g><g class="layer lonaxis"><path style="fill: none; stroke: rgb(238, 238, 238); stroke-opacity: 1; stroke-width: 0.5px;"/></g><g class="layer backplot"><g class="choroplethlayer"/></g><g class="layer frontplot"><g class="scatterlayer"><g class="trace scattergeo" style="opacity: 1;"><path class="point" d="M5,0A5,5 0 1,1 0,-5A5,5 0 0,1 5,0Z" transform="translate(347.53033683615195,197.13711287825572)" style="opacity: 0.6; stroke-width: 1.5px; fill: rgb(31, 119, 180); fill-opacity: 1; stroke: rgb(231, 99, 250); stroke-opacity: 1;"/><path class="point" d="M8.5,0A8.5,8.5 0 1,1 0,-8.5A8.5,8.5 0 0,1 8.5,0Z" transform="translate(320.7664023406569,306.7975135823217)" style="opacity: 0.6; stroke-width: 1.5px; fill: rgb(31, 119, 180); fill-opacity: 1; stroke: rgb(231, 99, 250); stroke-opacity: 1;"/><path class="point" d="M4,0A4,4 0 1,1 0,-4A4,4 0 0,1 4,0Z" transform="translate(255.69927393669423,269.0814160804184)" style="opacity: 0.6; stroke-width: 1.5px; fill: rgb(31, 119, 180); fill-opacity: 1; stroke: rgb(231, 99, 250); stroke-opacity: 1;"/><path class="point" d="M5,0A5,5 0 1,1 0,-5A5,5 0 0,1 5,0Z" transform="translate(407.57476304519605,158.31180228444282)" style="opacity: 0.6; stroke-width: 1.5px; fill: rgb(31, 119, 180); fill-opacity: 1; stroke: rgb(231, 99, 250); stroke-opacity: 1;"/><path class="point" d="M3.5,0A3.5,3.5 0 1,1 0,-3.5A3.5,3.5 0 0,1 3.5,0Z" transform="translate(412.1898895794857,125.82696559460237)" style="opacity: 0.6; stroke-width: 1.5px; fill: rgb(31, 119, 180); fill-opacity: 1; stroke: rgb(231, 99, 250); stroke-opacity: 1;"/><path class="point" d="M9.5,0A9.5,9.5 0 1,1 0,-9.5A9.5,9.5 0 0,1 9.5,0Z" transform="translate(409.3522536189703,150.67539065556775)" style="opacity: 0.6; stroke-width: 1.5px; fill: rgb(31, 119, 180); fill-opacity: 1; stroke: rgb(231, 99, 250); stroke-opacity: 1;"/><path class="point" d="M12.5,0A12.5,12.5 0 1,1 0,-12.5A12.5,12.5 0 0,1 12.5,0Z" transform="translate(430.55932987482356,172.46859080886134)" style="opacity: 0.6; stroke-width: 1.5px; fill: rgb(31, 119, 180); fill-opacity: 1; stroke: rgb(231, 99, 250); stroke-opacity: 1;"/><path class="point" d="M1,0A1,1 0 1,1 0,-1A1,1 0 0,1 1,0Z" transform="translate(377.1887301778261,286.5229340336846)" style="opacity: 0.6; stroke-width: 1.5px; fill: rgb(31, 119, 180); fill-opacity: 1; stroke: rgb(231, 99, 250); stroke-opacity: 1;"/><path class="point" d="M3.5,0A3.5,3.5 0 1,1 0,-3.5A3.5,3.5 0 0,1 3.5,0Z" transform="translate(429.05150649260577,175.6868770269757)" style="opacity: 0.6; stroke-width: 1.5px; fill: rgb(31, 119, 180); fill-opacity: 1; stroke: rgb(231, 99, 250); stroke-opacity: 1;"/><path class="point" d="M2,0A2,2 0 1,1 0,-2A2,2 0 0,1 2,0Z" transform="translate(375.90696745321566,252.7586281879121)" style="opacity: 0.6; stroke-width: 1.5px; fill: rgb(31, 119, 180); fill-opacity: 1; stroke: rgb(231, 99, 250); stroke-opacity: 1;"/><path class="point" d="M2,0A2,2 0 1,1 0,-2A2,2 0 0,1 2,0Z" transform="translate(446.5187840649214,167.66571799988014)" style="opacity: 0.6; stroke-width: 1.5px; fill: rgb(31, 119, 180); fill-opacity: 1; stroke: rgb(231, 99, 250); stroke-opacity: 1;"/><path class="point" d="M4,0A4,4 0 1,1 0,-4A4,4 0 0,1 4,0Z" transform="translate(365.3340047060756,210.45607420937085)" style="opacity: 0.6; stroke-width: 1.5px; fill: rgb(31, 119, 180); fill-opacity: 1; stroke: rgb(231, 99, 250); stroke-opacity: 1;"/><path class="point" d="M15.5,0A15.5,15.5 0 1,1 0,-15.5A15.5,15.5 0 0,1 15.5,0Z" transform="translate(455.8637261976173,301.5282354319279)" style="opacity: 0.6; stroke-width: 1.5px; fill: rgb(31, 119, 180); fill-opacity: 1; stroke: rgb(231, 99, 250); stroke-opacity: 1;"/><path class="point" d="M4,0A4,4 0 1,1 0,-4A4,4 0 0,1 4,0Z" transform="translate(543.913861454057,248.5149500205298)" style="opacity: 0.6; stroke-width: 1.5px; fill: rgb(31, 119, 180); fill-opacity: 1; stroke: rgb(231, 99, 250); stroke-opacity: 1;"/><path class="point" d="M7.5,0A7.5,7.5 0 1,1 0,-7.5A7.5,7.5 0 0,1 7.5,0Z" transform="translate(342.83965421996163,244.8301854494348)" style="opacity: 0.6; stroke-width: 1.5px; fill: rgb(31, 119, 180); fill-opacity: 1; stroke: rgb(231, 99, 250); stroke-opacity: 1;"/><path class="point" d="M14,0A14,14 0 1,1 0,-14A14,14 0 0,1 14,0Z" transform="translate(183.67587509844998,292.3085203616283)" style="opacity: 0.6; stroke-width: 1.5px; fill: rgb(31, 119, 180); fill-opacity: 1; stroke: rgb(231, 99, 250); stroke-opacity: 1;"/><path class="point" d="M7,0A7,7 0 1,1 0,-7A7,7 0 0,1 7,0Z" transform="translate(410.86742083703393,142.25912407723808)" style="opacity: 0.6; stroke-width: 1.5px; fill: rgb(31, 119, 180); fill-opacity: 1; stroke: rgb(231, 99, 250); stroke-opacity: 1;"/><path class="point" d="M3,0A3,3 0 1,1 0,-3A3,3 0 0,1 3,0Z" transform="translate(371.33590267239833,357.18142629764407)" style="opacity: 0.6; stroke-width: 1.5px; fill: rgb(31, 119, 180); fill-opacity: 1; stroke: rgb(231, 99, 250); stroke-opacity: 1;"/><path class="point" d="M20.5,0A20.5,20.5 0 1,1 0,-20.5A20.5,20.5 0 0,1 20.5,0Z" transform="translate(395.5660540281551,174.04152545821853)" style="opacity: 0.6; stroke-width: 1.5px; fill: rgb(31, 119, 180); fill-opacity: 1; stroke: rgb(231, 99, 250); stroke-opacity: 1;"/><path class="point" d="M5.5,0A5.5,5.5 0 1,1 0,-5.5A5.5,5.5 0 0,1 5.5,0Z" transform="translate(353.59503749590385,210.99542738406672)" style="opacity: 0.6; stroke-width: 1.5px; fill: rgb(31, 119, 180); fill-opacity: 1; stroke: rgb(231, 99, 250); stroke-opacity: 1;"/><path class="point" d="M13,0A13,13 0 1,1 0,-13A13,13 0 0,1 13,0Z" transform="translate(272.4000196866891,254.17607413912265)" style="opacity: 0.6; stroke-width: 1.5px; fill: rgb(31, 119, 180); fill-opacity: 1; stroke: rgb(231, 99, 250); stroke-opacity: 1;"/><path class="point" d="M19,0A19,19 0 1,1 0,-19A19,19 0 0,1 19,0Z" transform="translate(357.91475135996825,189.3900956977559)" style="opacity: 0.6; stroke-width: 1.5px; fill: rgb(31, 119, 180); fill-opacity: 1; stroke: rgb(231, 99, 250); stroke-opacity: 1;"/><path class="point" d="M6.5,0A6.5,6.5 0 1,1 0,-6.5A6.5,6.5 0 0,1 6.5,0Z" transform="translate(341.69969166230294,378.4661951029084)" style="opacity: 0.6; stroke-width: 1.5px; fill: rgb(31, 119, 180); fill-opacity: 1; stroke: rgb(231, 99, 250); stroke-opacity: 1;"/><path class="point" d="M16,0A16,16 0 1,1 0,-16A16,16 0 0,1 16,0Z" transform="translate(433.40247216903845,159.34284727508566)" style="opacity: 0.6; stroke-width: 1.5px; fill: rgb(31, 119, 180); fill-opacity: 1; stroke: rgb(231, 99, 250); stroke-opacity: 1;"/><path class="point" d="M1,0A1,1 0 1,1 0,-1A1,1 0 0,1 1,0Z" transform="translate(263.50140921405546,281.80187554893564)" style="opacity: 0.6; stroke-width: 1.5px; fill: rgb(31, 119, 180); fill-opacity: 1; stroke: rgb(231, 99, 250); stroke-opacity: 1;"/><path class="point" d="M10.5,0A10.5,10.5 0 1,1 0,-10.5A10.5,10.5 0 0,1 10.5,0Z" transform="translate(431.8360511440542,226.48246757622837)" style="opacity: 0.6; stroke-width: 1.5px; fill: rgb(31, 119, 180); fill-opacity: 1; stroke: rgb(231, 99, 250); stroke-opacity: 1;"/><path class="point" d="M11,0A11,11 0 1,1 0,-11A11,11 0 0,1 11,0Z" transform="translate(154.89057615654474,278.98197374205483)" style="opacity: 0.6; stroke-width: 1.5px; fill: rgb(31, 119, 180); fill-opacity: 1; stroke: rgb(231, 99, 250); stroke-opacity: 1;"/><path class="point" d="M8,0A8,8 0 1,1 0,-8A8,8 0 0,1 8,0Z" transform="translate(280.0487649859615,180.26177436155558)" style="opacity: 0.6; stroke-width: 1.5px; fill: rgb(31, 119, 180); fill-opacity: 1; stroke: rgb(231, 99, 250); stroke-opacity: 1;"/><path class="point" d="M1,0A1,1 0 1,1 0,-1A1,1 0 0,1 1,0Z" transform="translate(228.24834280360938,283.2893506972978)" style="opacity: 0.6; stroke-width: 1.5px; fill: rgb(31, 119, 180); fill-opacity: 1; stroke: rgb(231, 99, 250); stroke-opacity: 1;"/><path class="point" d="M4,0A4,4 0 1,1 0,-4A4,4 0 0,1 4,0Z" transform="translate(408.26620275329424,145.41882394423374)" style="opacity: 0.6; stroke-width: 1.5px; fill: rgb(31, 119, 180); fill-opacity: 1; stroke: rgb(231, 99, 250); stroke-opacity: 1;"/><path class="point" d="M11.5,0A11.5,11.5 0 1,1 0,-11.5A11.5,11.5 0 0,1 11.5,0Z" transform="translate(452.59772214171335,385.3983954329451)" style="opacity: 0.6; stroke-width: 1.5px; fill: rgb(31, 119, 180); fill-opacity: 1; stroke: rgb(231, 99, 250); stroke-opacity: 1;"/><path class="point" d="M3.5,0A3.5,3.5 0 1,1 0,-3.5A3.5,3.5 0 0,1 3.5,0Z" transform="translate(381.76107415740626,200.81852239308864)" style="opacity: 0.6; stroke-width: 1.5px; fill: rgb(31, 119, 180); fill-opacity: 1; stroke: rgb(231, 99, 250); stroke-opacity: 1;"/><path class="point" d="M5,0A5,5 0 1,1 0,-5A5,5 0 0,1 5,0Z" transform="translate(420.6068564330835,136.71653417261405)" style="opacity: 0.6; stroke-width: 1.5px; fill: rgb(31, 119, 180); fill-opacity: 1; stroke: rgb(231, 99, 250); stroke-opacity: 1;"/><path class="point" d="M4.5,0A4.5,4.5 0 1,1 0,-4.5A4.5,4.5 0 0,1 4.5,0Z" transform="translate(494.1919846257515,288.9246507787866)" style="opacity: 0.6; stroke-width: 1.5px; fill: rgb(31, 119, 180); fill-opacity: 1; stroke: rgb(231, 99, 250); stroke-opacity: 1;"/><path class="point" d="M2.5,0A2.5,2.5 0 1,1 0,-2.5A2.5,2.5 0 0,1 2.5,0Z" transform="translate(430.622685262294,168.73413066823196)" style="opacity: 0.6; stroke-width: 1.5px; fill: rgb(31, 119, 180); fill-opacity: 1; stroke: rgb(231, 99, 250); stroke-opacity: 1;"/><path class="point" d="M1,0A1,1 0 1,1 0,-1A1,1 0 0,1 1,0Z" transform="translate(375.8023153904669,396.83856360890786)" style="opacity: 0.6; stroke-width: 1.5px; fill: rgb(31, 119, 180); fill-opacity: 1; stroke: rgb(231, 99, 250); stroke-opacity: 1;"/><path class="point" d="M8,0A8,8 0 1,1 0,-8A8,8 0 0,1 8,0Z" transform="translate(277.7677589107416,293.3249737691549)" style="opacity: 0.6; stroke-width: 1.5px; fill: rgb(31, 119, 180); fill-opacity: 1; stroke: rgb(231, 99, 250); stroke-opacity: 1;"/><path class="point" d="M5.5,0A5.5,5.5 0 1,1 0,-5.5A5.5,5.5 0 0,1 5.5,0Z" transform="translate(232.35165424956085,228.19877559407905)" style="opacity: 0.6; stroke-width: 1.5px; fill: rgb(31, 119, 180); fill-opacity: 1; stroke: rgb(231, 99, 250); stroke-opacity: 1;"/><path class="point" d="M9.5,0A9.5,9.5 0 1,1 0,-9.5A9.5,9.5 0 0,1 9.5,0Z" transform="translate(543.4626398835062,252.16000614896257)" style="opacity: 0.6; stroke-width: 1.5px; fill: rgb(31, 119, 180); fill-opacity: 1; stroke: rgb(231, 99, 250); stroke-opacity: 1;"/><path class="point" d="M15.5,0A15.5,15.5 0 1,1 0,-15.5A15.5,15.5 0 0,1 15.5,0Z" transform="translate(382.61141818819124,253.17683465998925)" style="opacity: 0.6; stroke-width: 1.5px; fill: rgb(31, 119, 180); fill-opacity: 1; stroke: rgb(231, 99, 250); stroke-opacity: 1;"/><path class="point" d="M12,0A12,12 0 1,1 0,-12A12,12 0 0,1 12,0Z" transform="translate(247.5876704321663,205.287086399916)" style="opacity: 0.6; stroke-width: 1.5px; fill: rgb(31, 119, 180); fill-opacity: 1; stroke: rgb(231, 99, 250); stroke-opacity: 1;"/><path class="point" d="M0.5,0A0.5,0.5 0 1,1 0,-0.5A0.5,0.5 0 0,1 0.5,0Z" transform="translate(343.0370089407934,247.35313943027722)" style="opacity: 0.6; stroke-width: 1.5px; fill: rgb(31, 119, 180); fill-opacity: 1; stroke: rgb(231, 99, 250); stroke-opacity: 1;"/><path class="point" d="M3.5,0A3.5,3.5 0 1,1 0,-3.5A3.5,3.5 0 0,1 3.5,0Z" transform="translate(495.70576071759297,312.06056743872614)" style="opacity: 0.6; stroke-width: 1.5px; fill: rgb(31, 119, 180); fill-opacity: 1; stroke: rgb(231, 99, 250); stroke-opacity: 1;"/><path class="point" d="M26.5,0A26.5,26.5 0 1,1 0,-26.5A26.5,26.5 0 0,1 26.5,0Z" transform="translate(286.20321574125774,182.2049602608531)" style="opacity: 0.6; stroke-width: 1.5px; fill: rgb(31, 119, 180); fill-opacity: 1; stroke: rgb(231, 99, 250); stroke-opacity: 1;"/><path class="point" d="M1,0A1,1 0 1,1 0,-1A1,1 0 0,1 1,0Z" transform="translate(421.5219669945691,134.7465886210157)" style="opacity: 0.6; stroke-width: 1.5px; fill: rgb(31, 119, 180); fill-opacity: 1; stroke: rgb(231, 99, 250); stroke-opacity: 1;"/><path class="point" d="M12.5,0A12.5,12.5 0 1,1 0,-12.5A12.5,12.5 0 0,1 12.5,0Z" transform="translate(486.28430232111896,322.62984600094205)" style="opacity: 0.6; stroke-width: 1.5px; fill: rgb(31, 119, 180); fill-opacity: 1; stroke: rgb(231, 99, 250); stroke-opacity: 1;"/><path class="point" d="M5.5,0A5.5,5.5 0 1,1 0,-5.5A5.5,5.5 0 0,1 5.5,0Z" transform="translate(336.24330946901864,213.3862771911372)" style="opacity: 0.6; stroke-width: 1.5px; fill: rgb(31, 119, 180); fill-opacity: 1; stroke: rgb(231, 99, 250); stroke-opacity: 1;"/><path class="point" d="M15,0A15,15 0 1,1 0,-15A15,15 0 0,1 15,0Z" transform="translate(356.5241673441742,229.62865731400962)" style="opacity: 0.6; stroke-width: 1.5px; fill: rgb(31, 119, 180); fill-opacity: 1; stroke: rgb(231, 99, 250); stroke-opacity: 1;"/><path class="point" d="M14,0A14,14 0 1,1 0,-14A14,14 0 0,1 14,0Z" transform="translate(411.527236543614,407.7446646918397)" style="opacity: 0.6; stroke-width: 1.5px; fill: rgb(31, 119, 180); fill-opacity: 1; stroke: rgb(231, 99, 250); stroke-opacity: 1;"/><path class="point" d="M14.5,0A14.5,14.5 0 1,1 0,-14.5A14.5,14.5 0 0,1 14.5,0Z" transform="translate(396.66272287162974,141.25879593496575)" style="opacity: 0.6; stroke-width: 1.5px; fill: rgb(31, 119, 180); fill-opacity: 1; stroke: rgb(231, 99, 250); stroke-opacity: 1;"/><path class="point" d="M12.5,0A12.5,12.5 0 1,1 0,-12.5A12.5,12.5 0 0,1 12.5,0Z" transform="translate(411.85412047023055,137.97695655420466)" style="opacity: 0.6; stroke-width: 1.5px; fill: rgb(31, 119, 180); fill-opacity: 1; stroke: rgb(231, 99, 250); stroke-opacity: 1;"/><path class="point" d="M11,0A11,11 0 1,1 0,-11A11,11 0 0,1 11,0Z" transform="translate(494.7754184151763,312.7189442683957)" style="opacity: 0.6; stroke-width: 1.5px; fill: rgb(31, 119, 180); fill-opacity: 1; stroke: rgb(231, 99, 250); stroke-opacity: 1;"/><path class="point" d="M5,0A5,5 0 1,1 0,-5A5,5 0 0,1 5,0Z" transform="translate(508.4576619295749,305.94810060627424)" style="opacity: 0.6; stroke-width: 1.5px; fill: rgb(31, 119, 180); fill-opacity: 1; stroke: rgb(231, 99, 250); stroke-opacity: 1;"/><path class="point" d="M1.5,0A1.5,1.5 0 1,1 0,-1.5A1.5,1.5 0 0,1 1.5,0Z" transform="translate(253.00155934610575,272.9592047818587)" style="opacity: 0.6; stroke-width: 1.5px; fill: rgb(31, 119, 180); fill-opacity: 1; stroke: rgb(231, 99, 250); stroke-opacity: 1;"/><path class="point" d="M13.5,0A13.5,13.5 0 1,1 0,-13.5A13.5,13.5 0 0,1 13.5,0Z" transform="translate(404.7487611335064,291.305142069461)" style="opacity: 0.6; stroke-width: 1.5px; fill: rgb(31, 119, 180); fill-opacity: 1; stroke: rgb(231, 99, 250); stroke-opacity: 1;"/><path class="point" d="M8.5,0A8.5,8.5 0 1,1 0,-8.5A8.5,8.5 0 0,1 8.5,0Z" transform="translate(445.9335360608102,392.7423868263031)" style="opacity: 0.6; stroke-width: 1.5px; fill: rgb(31, 119, 180); fill-opacity: 1; stroke: rgb(231, 99, 250); stroke-opacity: 1;"/><path class="point" d="M4.5,0A4.5,4.5 0 1,1 0,-4.5A4.5,4.5 0 0,1 4.5,0Z" transform="translate(376.3037666334412,148.32707064959686)" style="opacity: 0.6; stroke-width: 1.5px; fill: rgb(31, 119, 180); fill-opacity: 1; stroke: rgb(231, 99, 250); stroke-opacity: 1;"/><path class="point" d="M5.5,0A5.5,5.5 0 1,1 0,-5.5A5.5,5.5 0 0,1 5.5,0Z" transform="translate(367.6199721024923,227.80701652293646)" style="opacity: 0.6; stroke-width: 1.5px; fill: rgb(31, 119, 180); fill-opacity: 1; stroke: rgb(231, 99, 250); stroke-opacity: 1;"/><path class="point" d="M10.5,0A10.5,10.5 0 1,1 0,-10.5A10.5,10.5 0 0,1 10.5,0Z" transform="translate(181.5891339876016,298.99820639672544)" style="opacity: 0.6; stroke-width: 1.5px; fill: rgb(31, 119, 180); fill-opacity: 1; stroke: rgb(231, 99, 250); stroke-opacity: 1;"/><path class="point" d="M3.5,0A3.5,3.5 0 1,1 0,-3.5A3.5,3.5 0 0,1 3.5,0Z" transform="translate(427.99984599885556,166.1918072070257)" style="opacity: 0.6; stroke-width: 1.5px; fill: rgb(31, 119, 180); fill-opacity: 1; stroke: rgb(231, 99, 250); stroke-opacity: 1;"/><path class="point" d="M6,0A6,6 0 1,1 0,-6A6,6 0 0,1 6,0Z" transform="translate(378.34224809622356,387.5359159297004)" style="opacity: 0.6; stroke-width: 1.5px; fill: rgb(31, 119, 180); fill-opacity: 1; stroke: rgb(231, 99, 250); stroke-opacity: 1;"/><path class="point" d="M9,0A9,9 0 1,1 0,-9A9,9 0 0,1 9,0Z" transform="translate(442.10413096259254,302.64479866034526)" style="opacity: 0.6; stroke-width: 1.5px; fill: rgb(31, 119, 180); fill-opacity: 1; stroke: rgb(231, 99, 250); stroke-opacity: 1;"/><path class="point" d="M7.5,0A7.5,7.5 0 1,1 0,-7.5A7.5,7.5 0 0,1 7.5,0Z" transform="translate(341.53607256700434,376.36610092517003)" style="opacity: 0.6; stroke-width: 1.5px; fill: rgb(31, 119, 180); fill-opacity: 1; stroke: rgb(231, 99, 250); stroke-opacity: 1;"/><path class="point" d="M4,0A4,4 0 1,1 0,-4A4,4 0 0,1 4,0Z" transform="translate(487.80552441905365,319.46111550442583)" style="opacity: 0.6; stroke-width: 1.5px; fill: rgb(31, 119, 180); fill-opacity: 1; stroke: rgb(231, 99, 250); stroke-opacity: 1;"/><path class="point" d="M4,0A4,4 0 1,1 0,-4A4,4 0 0,1 4,0Z" transform="translate(406.1798378543126,149.24017446515063)" style="opacity: 0.6; stroke-width: 1.5px; fill: rgb(31, 119, 180); fill-opacity: 1; stroke: rgb(231, 99, 250); stroke-opacity: 1;"/><path class="point" d="M13,0A13,13 0 1,1 0,-13A13,13 0 0,1 13,0Z" transform="translate(412.78904627771317,145.57453862725015)" style="opacity: 0.6; stroke-width: 1.5px; fill: rgb(31, 119, 180); fill-opacity: 1; stroke: rgb(231, 99, 250); stroke-opacity: 1;"/><path class="point" d="M7.5,0A7.5,7.5 0 1,1 0,-7.5A7.5,7.5 0 0,1 7.5,0Z" transform="translate(483.12340866596696,219.21568011483032)" style="opacity: 0.6; stroke-width: 1.5px; fill: rgb(31, 119, 180); fill-opacity: 1; stroke: rgb(231, 99, 250); stroke-opacity: 1;"/><path class="point" d="M3,0A3,3 0 1,1 0,-3A3,3 0 0,1 3,0Z" transform="translate(246.44220899422453,271.49451934635)" style="opacity: 0.6; stroke-width: 1.5px; fill: rgb(31, 119, 180); fill-opacity: 1; stroke: rgb(231, 99, 250); stroke-opacity: 1;"/><path class="point" d="M9,0A9,9 0 1,1 0,-9A9,9 0 0,1 9,0Z" transform="translate(383.936663317284,396.33993662991634)" style="opacity: 0.6; stroke-width: 1.5px; fill: rgb(31, 119, 180); fill-opacity: 1; stroke: rgb(231, 99, 250); stroke-opacity: 1;"/><path class="point" d="M1,0A1,1 0 1,1 0,-1A1,1 0 0,1 1,0Z" transform="translate(431.1039499199069,397.20304017783565)" style="opacity: 0.6; stroke-width: 1.5px; fill: rgb(31, 119, 180); fill-opacity: 1; stroke: rgb(231, 99, 250); stroke-opacity: 1;"/><path class="point" d="M0.5,0A0.5,0.5 0 1,1 0,-0.5A0.5,0.5 0 0,1 0.5,0Z" transform="translate(462.9378407133763,217.29311410065566)" style="opacity: 0.6; stroke-width: 1.5px; fill: rgb(31, 119, 180); fill-opacity: 1; stroke: rgb(231, 99, 250); stroke-opacity: 1;"/><path class="point" d="M14,0A14,14 0 1,1 0,-14A14,14 0 0,1 14,0Z" transform="translate(433.63851903514114,156.00629395353826)" style="opacity: 0.6; stroke-width: 1.5px; fill: rgb(31, 119, 180); fill-opacity: 1; stroke: rgb(231, 99, 250); stroke-opacity: 1;"/><path class="point" d="M19.5,0A19.5,19.5 0 1,1 0,-19.5A19.5,19.5 0 0,1 19.5,0Z" transform="translate(508.0227363241229,246.10775696249038)" style="opacity: 0.6; stroke-width: 1.5px; fill: rgb(31, 119, 180); fill-opacity: 1; stroke: rgb(231, 99, 250); stroke-opacity: 1;"/><path class="point" d="M6,0A6,6 0 1,1 0,-6A6,6 0 0,1 6,0Z" transform="translate(396.85912953637944,154.68296435365482)" style="opacity: 0.6; stroke-width: 1.5px; fill: rgb(31, 119, 180); fill-opacity: 1; stroke: rgb(231, 99, 250); stroke-opacity: 1;"/><path class="point" d="M8,0A8,8 0 1,1 0,-8A8,8 0 0,1 8,0Z" transform="translate(430.45301530025336,166.29944960308785)" style="opacity: 0.6; stroke-width: 1.5px; fill: rgb(31, 119, 180); fill-opacity: 1; stroke: rgb(231, 99, 250); stroke-opacity: 1;"/><path class="point" d="M5,0A5,5 0 1,1 0,-5A5,5 0 0,1 5,0Z" transform="translate(435.6968018955931,251.10767209478217)" style="opacity: 0.6; stroke-width: 1.5px; fill: rgb(31, 119, 180); fill-opacity: 1; stroke: rgb(231, 99, 250); stroke-opacity: 1;"/><path class="point" d="M7,0A7,7 0 1,1 0,-7A7,7 0 0,1 7,0Z" transform="translate(403.19196484092754,209.03053500700116)" style="opacity: 0.6; stroke-width: 1.5px; fill: rgb(31, 119, 180); fill-opacity: 1; stroke: rgb(231, 99, 250); stroke-opacity: 1;"/><path class="point" d="M12.5,0A12.5,12.5 0 1,1 0,-12.5A12.5,12.5 0 0,1 12.5,0Z" transform="translate(424.36109949812726,405.428378501103)" style="opacity: 0.6; stroke-width: 1.5px; fill: rgb(31, 119, 180); fill-opacity: 1; stroke: rgb(231, 99, 250); stroke-opacity: 1;"/><path class="point" d="M4.5,0A4.5,4.5 0 1,1 0,-4.5A4.5,4.5 0 0,1 4.5,0Z" transform="translate(445.19382430253336,204.6554463289649)" style="opacity: 0.6; stroke-width: 1.5px; fill: rgb(31, 119, 180); fill-opacity: 1; stroke: rgb(231, 99, 250); stroke-opacity: 1;"/><path class="point" d="M4,0A4,4 0 1,1 0,-4A4,4 0 0,1 4,0Z" transform="translate(430.5898635485073,171.74216557824548)" style="opacity: 0.6; stroke-width: 1.5px; fill: rgb(31, 119, 180); fill-opacity: 1; stroke: rgb(231, 99, 250); stroke-opacity: 1;"/><path class="point" d="M9.5,0A9.5,9.5 0 1,1 0,-9.5A9.5,9.5 0 0,1 9.5,0Z" transform="translate(241.3722442958142,275.6659428793537)" style="opacity: 0.6; stroke-width: 1.5px; fill: rgb(31, 119, 180); fill-opacity: 1; stroke: rgb(231, 99, 250); stroke-opacity: 1;"/><path class="point" d="M10.5,0A10.5,10.5 0 1,1 0,-10.5A10.5,10.5 0 0,1 10.5,0Z" transform="translate(312.4242576444185,375.38351030326885)" style="opacity: 0.6; stroke-width: 1.5px; fill: rgb(31, 119, 180); fill-opacity: 1; stroke: rgb(231, 99, 250); stroke-opacity: 1;"/><path class="point" d="M1.5,0A1.5,1.5 0 1,1 0,-1.5A1.5,1.5 0 0,1 1.5,0Z" transform="translate(312.7459383745381,375.8306766771748)" style="opacity: 0.6; stroke-width: 1.5px; fill: rgb(31, 119, 180); fill-opacity: 1; stroke: rgb(231, 99, 250); stroke-opacity: 1;"/><path class="point" d="M12.5,0A12.5,12.5 0 1,1 0,-12.5A12.5,12.5 0 0,1 12.5,0Z" transform="translate(306.6349941303506,214.61444611986371)" style="opacity: 0.6; stroke-width: 1.5px; fill: rgb(31, 119, 180); fill-opacity: 1; stroke: rgb(231, 99, 250); stroke-opacity: 1;"/><path class="point" d="M3,0A3,3 0 1,1 0,-3A3,3 0 0,1 3,0Z" transform="translate(398.0138367883901,146.8701391064169)" style="opacity: 0.6; stroke-width: 1.5px; fill: rgb(31, 119, 180); fill-opacity: 1; stroke: rgb(231, 99, 250); stroke-opacity: 1;"/><path class="point" d="M10,0A10,10 0 1,1 0,-10A10,10 0 0,1 10,0Z" transform="translate(248.62371580057606,272.74443960566714)" style="opacity: 0.6; stroke-width: 1.5px; fill: rgb(31, 119, 180); fill-opacity: 1; stroke: rgb(231, 99, 250); stroke-opacity: 1;"/><path class="point" d="M3,0A3,3 0 1,1 0,-3A3,3 0 0,1 3,0Z" transform="translate(373.20839129786236,382.2664900920827)" style="opacity: 0.6; stroke-width: 1.5px; fill: rgb(31, 119, 180); fill-opacity: 1; stroke: rgb(231, 99, 250); stroke-opacity: 1;"/><path class="point" d="M5,0A5,5 0 1,1 0,-5A5,5 0 0,1 5,0Z" transform="translate(253.43081275614986,272.8785698123247)" style="opacity: 0.6; stroke-width: 1.5px; fill: rgb(31, 119, 180); fill-opacity: 1; stroke: rgb(231, 99, 250); stroke-opacity: 1;"/><path class="point" d="M11.5,0A11.5,11.5 0 1,1 0,-11.5A11.5,11.5 0 0,1 11.5,0Z" transform="translate(409.8623683273008,139.12383727511406)" style="opacity: 0.6; stroke-width: 1.5px; fill: rgb(31, 119, 180); fill-opacity: 1; stroke: rgb(231, 99, 250); stroke-opacity: 1;"/><path class="point" d="M4,0A4,4 0 1,1 0,-4A4,4 0 0,1 4,0Z" transform="translate(413.4333584331798,201.11300494307943)" style="opacity: 0.6; stroke-width: 1.5px; fill: rgb(31, 119, 180); fill-opacity: 1; stroke: rgb(231, 99, 250); stroke-opacity: 1;"/><path class="point" d="M6,0A6,6 0 1,1 0,-6A6,6 0 0,1 6,0Z" transform="translate(468.46347276995493,284.93652254105837)" style="opacity: 0.6; stroke-width: 1.5px; fill: rgb(31, 119, 180); fill-opacity: 1; stroke: rgb(231, 99, 250); stroke-opacity: 1;"/><path class="point" d="M12,0A12,12 0 1,1 0,-12A12,12 0 0,1 12,0Z" transform="translate(247.92706403746524,206.16359153126177)" style="opacity: 0.6; stroke-width: 1.5px; fill: rgb(31, 119, 180); fill-opacity: 1; stroke: rgb(231, 99, 250); stroke-opacity: 1;"/><path class="point" d="M9.5,0A9.5,9.5 0 1,1 0,-9.5A9.5,9.5 0 0,1 9.5,0Z" transform="translate(429.40109476954876,179.638334388339)" style="opacity: 0.6; stroke-width: 1.5px; fill: rgb(31, 119, 180); fill-opacity: 1; stroke: rgb(231, 99, 250); stroke-opacity: 1;"/><path class="point" d="M12.5,0A12.5,12.5 0 1,1 0,-12.5A12.5,12.5 0 0,1 12.5,0Z" transform="translate(428.487045478254,176.41413544286115)" style="opacity: 0.6; stroke-width: 1.5px; fill: rgb(31, 119, 180); fill-opacity: 1; stroke: rgb(231, 99, 250); stroke-opacity: 1;"/><path class="point" d="M15.5,0A15.5,15.5 0 1,1 0,-15.5A15.5,15.5 0 0,1 15.5,0Z" transform="translate(445.1222703227977,385.35537663799914)" style="opacity: 0.6; stroke-width: 1.5px; fill: rgb(31, 119, 180); fill-opacity: 1; stroke: rgb(231, 99, 250); stroke-opacity: 1;"/><path class="point" d="M6.5,0A6.5,6.5 0 1,1 0,-6.5A6.5,6.5 0 0,1 6.5,0Z" transform="translate(405.79142904322,247.11221198956264)" style="opacity: 0.6; stroke-width: 1.5px; fill: rgb(31, 119, 180); fill-opacity: 1; stroke: rgb(231, 99, 250); stroke-opacity: 1;"/><path class="point" d="M3,0A3,3 0 1,1 0,-3A3,3 0 0,1 3,0Z" transform="translate(260.6740903873215,247.24316747442936)" style="opacity: 0.6; stroke-width: 1.5px; fill: rgb(31, 119, 180); fill-opacity: 1; stroke: rgb(231, 99, 250); stroke-opacity: 1;"/><path class="point" d="M6.5,0A6.5,6.5 0 1,1 0,-6.5A6.5,6.5 0 0,1 6.5,0Z" transform="translate(351.7578662021151,361.92976091399396)" style="opacity: 0.6; stroke-width: 1.5px; fill: rgb(31, 119, 180); fill-opacity: 1; stroke: rgb(231, 99, 250); stroke-opacity: 1;"/><path class="point" d="M5,0A5,5 0 1,1 0,-5A5,5 0 0,1 5,0Z" transform="translate(258.6633030488347,268.1488234831886)" style="opacity: 0.6; stroke-width: 1.5px; fill: rgb(31, 119, 180); fill-opacity: 1; stroke: rgb(231, 99, 250); stroke-opacity: 1;"/><path class="point" d="M15,0A15,15 0 1,1 0,-15A15,15 0 0,1 15,0Z" transform="translate(346.2861361045907,380.2449572798432)" style="opacity: 0.6; stroke-width: 1.5px; fill: rgb(31, 119, 180); fill-opacity: 1; stroke: rgb(231, 99, 250); stroke-opacity: 1;"/></g></g></g></g></g><g class="pielayer"/><g class="glimages"/><defs id="topdefs-fb9f20"><g class="clips"/></defs><g class="layer-above"><g class="imagelayer"/><g class="shapelayer"/></g><g class="infolayer"><g class="g-gtitle"><text class="gtitle" x="350" y="50" text-anchor="middle" style="font-family: 'Open Sans', verdana, arial, sans-serif; font-size: 17px; fill: rgb(68, 68, 68); opacity: 1; font-weight: normal; white-space: pre;">Local cost distribution</text></g></g></svg>