<svg class="main-svg" xmlns="http://www.w3.org/2000/svg" xmlns:xlink="http://www.w3.org/1999/xlink" width="700" height="230" viewBox="0 0 700 230"><rect x="0" y="0" width="700" height="230" style="fill: rgb(0, 0, 0); fill-opacity: 0;"/><defs id="defs-107b41"><g class="clips"><clipPath id="clip107b41xyplot" class="plotclip"><rect width="540" height="165"/></clipPath><clipPath class="axesclip" id="clip107b41x"><rect x="80" y="0" width="540" height="230"/></clipPath><clipPath class="axesclip" id="clip107b41y"><rect x="0" y="25" width="700" height="165"/></clipPath><clipPath class="axesclip" id="clip107b41xy"><rect x="80" y="25" width="540" height="165"/></clipPath></g><g class="gradients"/></defs><g class="bglayer"><rect class="bg" x="80" y="25" width="540" height="165" style="fill: rgb(255, 255, 255); fill-opacity: 1; stroke-width: 0;"/></g><g class="layer-below"><g class="imagelayer"/><g class="shapelayer"/></g><g class="cartesianlayer"><g class="subplot xy"><g class="layer-subplot"><g class="shapelayer"/><g class="imagelayer"/></g><g class="gridlayer"><g class="x"><path class="xgrid crisp" d="M0,25v165" transform="translate(85.35,0)" style="stroke: rgb(244, 244, 244); stroke-opacity: 1; stroke-width: 1px;"/><path class="xgrid crisp" d="M0,25v165" transform="translate(112.08,0)" style="stroke: rgb(244, 244, 244); stroke-opacity: 1; stroke-width: 1px;"/><path class="xgrid crisp" d="M0,25v165" transform="translate(138.81,0)" style="stroke: rgb(244, 244, 244); stroke-opacity: 1; stroke-width: 1px;"/><path class="xgrid crisp" d="M0,25v165" transform="translate(165.54000000000002,0)" style="stroke: rgb(244, 244, 244); stroke-opacity: 1; stroke-width: 1px;"/><path class="xgrid crisp" d="M0,25v165" transform="translate(192.28,0)" style="stroke: rgb(244, 244, 244); stroke-opacity: 1; stroke-width: 1px;"/><path class="xgrid crisp" d="M0,25v165" transform="translate(219.01,0)" style="stroke: rgb(244, 244, 244); stroke-opacity: 1; stroke-width: 1px;"/><path class="xgrid crisp" d="M0,25v165" transform="translate(245.74,0)" style="stroke: rgb(244, 244, 244); stroke-opacity: 1; stroke-width: 1px;"/><path class="xgrid crisp" d="M0,25v165" transform="translate(272.48,0)" style="stroke: rgb(244, 244, 244); stroke-opacity: 1; stroke-width: 1px;"/><path class="xgrid crisp" d="M0,25v165" transform="translate(299.21000000000004,0)" style="stroke: rgb(244, 244, 244); stroke-opacity: 1; stroke-width: 1px;"/><path class="xgrid crisp" d="M0,25v165" transform="translate(325.94,0)" style="stroke: rgb(244, 244, 244); stroke-opacity: 1; stroke-width: 1px;"/><path class="xgrid crisp" d="M0,25v165" transform="translate(352.67,0)" style="stroke: rgb(244, 244, 244); stroke-opacity: 1; stroke-width: 1px;"/><path class="xgrid crisp" d="M0,25v165" transform="translate(379.41,0)" style="stroke: rgb(244, 244, 244); stroke-opacity: 1; stroke-width: 1px;"/><path class="xgrid crisp" d="M0,25v165" transform="translate(406.14,0)" style="stroke: rgb(244, 244, 244); stroke-opacity: 1; stroke-width: 1px;"/><path class="xgrid crisp" d="M0,25v165" transform="translate(432.87,0)" style="stroke: rgb(244, 244, 244); stroke-opacity: 1; stroke-width: 1px;"/><path class="xgrid crisp" d="M0,25v165" transform="translate(459.6,0)" style="stroke: rgb(244, 244, 244); stroke-opacity: 1; stroke-width: 1px;"/><path class="xgrid crisp" d="M0,25v165" transform="translate(486.34,0)" style="stroke: rgb(244, 244, 244); stroke-opacity: 1; stroke-width: 1px;"/><path class="xgrid crisp" d="M0,25v165" transform="translate(513.0699999999999,0)" style="stroke: rgb(244, 244, 244); stroke-opacity: 1; stroke-width: 1px;"/><path class="xgrid crisp" d="M0,25v165" transform="translate(539.8,0)" style="stroke: rgb(244, 244, 244); stroke-opacity: 1; stroke-width: 1px;"/><path class="xgrid crisp" d="M0,25v165" transform="translate(566.53,0)" style="stroke: rgb(244, 244, 244); stroke-opacity: 1; stroke-width: 1px;"/><path class="xgrid crisp" d="M0,25v165" transform="translate(593.27,0)" style="stroke: rgb(244, 244, 244); stroke-opacity: 1; stroke-width: 1px;"/></g><g class="y"><path class="ygrid crisp" d="M80,0h540" transform="translate(0,157)" style="stroke: rgb(244, 244, 244); stroke-opacity: 1; stroke-width: 1px;"/><path class="ygrid crisp" d="M80,0h540" transform="translate(0,124)" style="stroke: rgb(244, 244, 244); stroke-opacity: 1; stroke-width: 1px;"/><path class="ygrid crisp" d="M80,0h540" transform="translate(0,91)" style="stroke: rgb(244, 244, 244); stroke-opacity: 1; stroke-width: 1px;"/><path class="ygrid crisp" d="M80,0h540" transform="translate(0,58)" style="stroke: rgb(244, 244, 244); stroke-opacity: 1; stroke-width: 1px;"/></g></g><g class="zerolinelayer"><path class="yzl zl crisp" d="M80,0h540" transform="translate(0,190)" style="stroke: rgb(136, 136, 136); stroke-opacity: 1; stroke-width: 1px;"/></g><path class="xlines-below"/><path class="ylines-below"/><g class="overlines-below"/><g class="xaxislayer-below"/><g class="yaxislayer-below"/><g class="overaxes-below"/><g class="plot" transform="translate(80, 25)" clip-path="url(#clip107b41xyplot)"><g class="scatterlayer mlayer"><g class="trace scatter trace42a1fac2-8cc5-4cda-a4f4-eceddadb3a24" style="stroke-miterlimit: 2; opacity: 1;"><g class="fills"/><g class="errorbars"/><g class="lines"><path class="js-line" d="M10.69,164.63L35.05,162.39L38.76,165L49.9,159.78L72.18,155.41L94.46,151.36L112.28,146.78L139.01,138.39L183.56,126.19L272.67,100.46L310.86,88.93L361.78,74.73L450.89,48.42L540,22.73" style="vector-effect: non-scaling-stroke; fill: none; stroke: rgb(31, 119, 180); stroke-opacity: 1; stroke-width: 2px; opacity: 1;"/></g><g class="points"><path class="point" transform="translate(10.69,164.63)" d="M0.5,0A0.5,0.5 0 1,1 0,-0.5A0.5,0.5 0 0,1 0.5,0Z" style="opacity: 1; stroke-width: 3px; fill: rgb(31, 119, 180); fill-opacity: 1; stroke: rgb(68, 68, 68); stroke-opacity: 1;"/><path class="point" transform="translate(35.05,162.39)" d="M0.5,0A0.5,0.5 0 1,1 0,-0.5A0.5,0.5 0 0,1 0.5,0Z" style="opacity: 1; stroke-width: 3px; fill: rgb(31, 119, 180); fill-opacity: 1; stroke: rgb(68, 68, 68); stroke-opacity: 1;"/><path class="point" transform="translate(38.76,165)" d="M0.5,0A0.5,0.5 0 1,1 0,-0.5A0.5,0.5 0 0,1 0.5,0Z" style="opacity: 1; stroke-width: 3px; fill: rgb(31, 119, 180); fill-opacity: 1; stroke: rgb(68, 68, 68); stroke-opacity: 1;"/><path class="point" transform="translate(43.54,163.03)" d="M0.5,0A0.5,0.5 0 1,1 0,-0.5A0.5,0.5 0 0,1 0.5,0Z" style="opacity: 1; stroke-width: 3px; fill: rgb(31, 119, 180); fill-opacity: 1; stroke: rgb(68, 68, 68); stroke-opacity: 1;"/><path class="point" transform="translate(49.9,159.78)" d="M0.5,0A0.5,0.5 0 1,1 0,-0.5A0.5,0.5 0 0,1 0.5,0Z" style="opacity: 1; stroke-width: 3px; fill: rgb(31, 119, 180); fill-opacity: 1; stroke: rgb(68, 68, 68); stroke-opacity: 1;"/><path class="point" transform="translate(72.18,155.41)" d="M0.5,0A0.5,0.5 0 1,1 0,-0.5A0.5,0.5 0 0,1 0.5,0Z" style="opacity: 1; stroke-width: 3px; fill: rgb(31, 119, 180); fill-opacity: 1; stroke: rgb(68, 68, 68); stroke-opacity: 1;"/><path class="point" transform="translate(81.73,153.42)" d="M0.5,0A0.5,0.5 0 1,1 0,-0.5A0.5,0.5 0 0,1 0.5,0Z" style="opacity: 1; stroke-width: 3px; fill: rgb(31, 119, 180); fill-opacity: 1; stroke: rgb(68, 68, 68); stroke-opacity: 1;"/><path class="point" transform="translate(94.46,151.36)" d="M0.5,0A0.5,0.5 0 1,1 0,-0.5A0.5,0.5 0 0,1 0.5,0Z" style="opacity: 1; stroke-width: 3px; fill: rgb(31, 119, 180); fill-opacity: 1; stroke: rgb(68, 68, 68); stroke-opacity: 1;"/><path class="point" transform="translate(112.28,146.78)" d="M0.5,0A0.5,0.5 0 1,1 0,-0.5A0.5,0.5 0 0,1 0.5,0Z" style="opacity: 1; stroke-width: 3px; fill: rgb(31, 119, 180); fill-opacity: 1; stroke: rgb(68, 68, 68); stroke-opacity: 1;"/><path class="point" transform="translate(139.01,138.39)" d="M0.5,0A0.5,0.5 0 1,1 0,-0.5A0.5,0.5 0 0,1 0.5,0Z" style="opacity: 1; stroke-width: 3px; fill: rgb(31, 119, 180); fill-opacity: 1; stroke: rgb(68, 68, 68); stroke-opacity: 1;"/><path class="point" transform="translate(183.56,126.19)" d="M0.5,0A0.5,0.5 0 1,1 0,-0.5A0.5,0.5 0 0,1 0.5,0Z" style="opacity: 1; stroke-width: 3px; fill: rgb(31, 119, 180); fill-opacity: 1; stroke: rgb(68, 68, 68); stroke-opacity: 1;"/><path class="point" transform="translate(199.77,121.57)" d="M0.5,0A0.5,0.5 0 1,1 0,-0.5A0.5,0.5 0 0,1 0.5,0Z" style="opacity: 1; stroke-width: 3px; fill: rgb(31, 119, 180); fill-opacity: 1; stroke: rgb(68, 68, 68); stroke-opacity: 1;"/><path class="point" transform="translate(219.21,115.94)" d="M0.5,0A0.5,0.5 0 1,1 0,-0.5A0.5,0.5 0 0,1 0.5,0Z" style="opacity: 1; stroke-width: 3px; fill: rgb(31, 119, 180); fill-opacity: 1; stroke: rgb(68, 68, 68); stroke-opacity: 1;"/><path class="point" transform="translate(242.97,108.8)" d="M0.5,0A0.5,0.5 0 1,1 0,-0.5A0.5,0.5 0 0,1 0.5,0Z" style="opacity: 1; stroke-width: 3px; fill: rgb(31, 119, 180); fill-opacity: 1; stroke: rgb(68, 68, 68); stroke-opacity: 1;"/><path class="point" transform="translate(272.67,100.46)" d="M0.5,0A0.5,0.5 0 1,1 0,-0.5A0.5,0.5 0 0,1 0.5,0Z" style="opacity: 1; stroke-width: 3px; fill: rgb(31, 119, 180); fill-opacity: 1; stroke: rgb(68, 68, 68); stroke-opacity: 1;"/><path class="point" transform="translate(310.86,88.93)" d="M0.5,0A0.5,0.5 0 1,1 0,-0.5A0.5,0.5 0 0,1 0.5,0Z" style="opacity: 1; stroke-width: 3px; fill: rgb(31, 119, 180); fill-opacity: 1; stroke: rgb(68, 68, 68); stroke-opacity: 1;"/><path class="point" transform="translate(361.78,74.73)" d="M0.5,0A0.5,0.5 0 1,1 0,-0.5A0.5,0.5 0 0,1 0.5,0Z" style="opacity: 1; stroke-width: 3px; fill: rgb(31, 119, 180); fill-opacity: 1; stroke: rgb(68, 68, 68); stroke-opacity: 1;"/><path class="point" transform="translate(450.89,48.42)" d="M0.5,0A0.5,0.5 0 1,1 0,-0.5A0.5,0.5 0 0,1 0.5,0Z" style="opacity: 1; stroke-width: 3px; fill: rgb(31, 119, 180); fill-opacity: 1; stroke: rgb(68, 68, 68); stroke-opacity: 1;"/><path class="point" transform="translate(540,22.73)" d="M0.5,0A0.5,0.5 0 1,1 0,-0.5A0.5,0.5 0 0,1 0.5,0Z" style="opacity: 1; stroke-width: 3px; fill: rgb(31, 119, 180); fill-opacity: 1; stroke: rgb(68, 68, 68); stroke-opacity: 1;"/></g><g class="text"/></g></g></g><g class="overplot"/><path class="xlines-above crisp" d="M0,0" style="fill: none;"/><path class="ylines-above crisp" d="M0,0" style="fill: none;"/><g class="overlines-above"/><g class="xaxislayer-above"><g class="xtick"><text text-anchor="middle" x="0" y="203" transform="translate(85.35,0)" style="font-family: 'Open Sans', verdana, arial, sans-serif; font-size: 12px; fill: rgb(136, 136, 136); fill-opacity: 1; white-space: pre;">0</text></g><g class="xtick"><text text-anchor="middle" x="0" y="203" transform="translate(112.08,0)" style="font-family: 'Open Sans', verdana, arial, sans-serif; font-size: 12px; fill: rgb(136, 136, 136); fill-opacity: 1; white-space: pre;">0.5</text></g><g class="xtick"><text text-anchor="middle" x="0" y="203" transform="translate(138.81,0)" style="font-family: 'Open Sans', verdana, arial, sans-serif; font-size: 12px; fill: rgb(136, 136, 136); fill-opacity: 1; white-space: pre;">1</text></g><g class="xtick"><text text-anchor="middle" x="0" y="203" transform="translate(165.54000000000002,0)" style="font-family: 'Open Sans', verdana, arial, sans-serif; font-size: 12px; fill: rgb(136, 136, 136); fill-opacity: 1; white-space: pre;">1.5</text></g><g class="xtick"><text text-anchor="middle" x="0" y="203" transform="translate(192.28,0)" style="font-family: 'Open Sans', verdana, arial, sans-serif; font-size: 12px; fill: rgb(136, 136, 136); fill-opacity: 1; white-space: pre;">2</text></g><g class="xtick"><text text-anchor="middle" x="0" y="203" transform="translate(219.01,0)" style="font-family: 'Open Sans', verdana, arial, sans-serif; font-size: 12px; fill: rgb(136, 136, 136); fill-opacity: 1; white-space: pre;">2.5</text></g><g class="xtick"><text text-anchor="middle" x="0" y="203" transform="translate(245.74,0)" style="font-family: 'Open Sans', verdana, arial, sans-serif; font-size: 12px; fill: rgb(136, 136, 136); fill-opacity: 1; white-space: pre;">3</text></g><g class="xtick"><text text-anchor="middle" x="0" y="203" transform="translate(272.48,0)" style="font-family: 'Open Sans', verdana, arial, sans-serif; font-size: 12px; fill: rgb(136, 136, 136); fill-opacity: 1; white-space: pre;">3.5</text></g><g class="xtick"><text text-anchor="middle" x="0" y="203" transform="translate(299.21000000000004,0)" style="font-family: 'Open Sans', verdana, arial, sans-serif; font-size: 12px; fill: rgb(136, 136, 136); fill-opacity: 1; white-space: pre;">4</text></g><g class="xtick"><text text-anchor="middle" x="0" y="203" transform="translate(325.94,0)" style="font-family: 'Open Sans', verdana, arial, sans-serif; font-size: 12px; fill: rgb(136, 136, 136); fill-opacity: 1; white-space: pre;">4.5</text></g><g class="xtick"><text text-anchor="middle" x="0" y="203" transform="translate(352.67,0)" style="font-family: 'Open Sans', verdana, arial, sans-serif; font-size: 12px; fill: rgb(136, 136, 136); fill-opacity: 1; white-space: pre;">5</text></g><g class="xtick"><text text-anchor="middle" x="0" y="203" transform="translate(379.41,0)" style="font-family: 'Open Sans', verdana, arial, sans-serif; font-size: 12px; fill: rgb(136, 136, 136); fill-opacity: 1; white-space: pre;">5.5</text></g><g class="xtick"><text text-anchor="middle" x="0" y="203" transform="translate(406.14,0)" style="font-family: 'Open Sans', verdana, arial, sans-serif; font-size: 12px; fill: rgb(136, 136, 136); fill-opacity: 1; white-space: pre;">6</text></g><g class="xtick"><text text-anchor="middle" x="0" y="203" transform="translate(432.87,0)" style="font-family: 'Open Sans', verdana, arial, sans-serif; font-size: 12px; fill: rgb(136, 136, 136); fill-opacity: 1; white-space: pre;">6.5</text></g><g class="xtick"><text text-anchor="middle" x="0" y="203" transform="translate(459.6,0)" style="font-family: 'Open Sans', verdana, arial, sans-serif; font-size: 12px; fill: rgb(136, 136, 136); fill-opacity: 1; white-space: pre;">7</text></g><g class="xtick"><text text-anchor="middle" x="0" y="203" transform="translate(486.34,0)" style="font-family: 'Open Sans', verdana, arial, sans-serif; font-size: 12px; fill: rgb(136, 136, 136); fill-opacity: 1; white-space: pre;">7.5</text></g><g class="xtick"><text text-anchor="middle" x="0" y="203" transform="translate(513.0699999999999,0)" style="font-family: 'Open Sans', verdana, arial, sans-serif; font-size: 12px; fill: rgb(136, 136, 136); fill-opacity: 1; white-space: pre;">8</text></g><g class="xtick"><text text-anchor="middle" x="0" y="203" transform="translate(539.8,0)" style="font-family: 'Open Sans', verdana, arial, sans-serif; font-size: 12px; fill: rgb(136, 136, 136); fill-opacity: 1; white-space: pre;">8.5</text></g><g class="xtick"><text text-anchor="middle" x="0" y="203" transform="translate(566.53,0)" style="font-family: 'Open Sans', verdana, arial, sans-serif; font-size: 12px; fill: rgb(136, 136, 136); fill-opacity: 1; white-space: pre;">9</text></g><g class="xtick"><text text-anchor="middle" x="0" y="203" transform="translate(593.27,0)" style="font-family: 'Open Sans', verdana, arial, sans-serif; font-size: 12px; fill: rgb(136, 136, 136); fill-opacity: 1; white-space: pre;">9.5</text></g><g class="xtick"><text text-anchor="middle" x="0" y="203" transform="translate(620,0)" style="font-family: 'Open Sans', verdana, arial, sans-serif; font-size: 12px; fill: rgb(136, 136, 136); fill-opacity: 1; white-space: pre;">10</text></g></g><g class="yaxislayer-above"><g class="ytick"><text text-anchor="end" x="79" y="4.199999999999999" transform="translate(0,190)" style="font-family: 'Open Sans', verdana, arial, sans-serif; font-size: 12px; fill: rgb(136, 136, 136); fill-opacity: 1; white-space: pre;">0</text></g><g class="ytick"><text text-anchor="end" x="79" y="4.199999999999999" transform="translate(0,157)" style="font-family: 'Open Sans', verdana, arial, sans-serif; font-size: 12px; fill: rgb(136, 136, 136); fill-opacity: 1; white-space: pre;">2</text></g><g class="ytick"><text text-anchor="end" x="79" y="4.199999999999999" transform="translate(0,124)" style="font-family: 'Open Sans', verdana, arial, sans-serif; font-size: 12px; fill: rgb(136, 136, 136); fill-opacity: 1; white-space: pre;">4</text></g><g class="ytick"><text text-anchor="end" x="79" y="4.199999999999999" transform="translate(0,91)" style="font-family: 'Open Sans', verdana, arial, sans-serif; font-size: 12px; fill: rgb(136, 136, 136); fill-opacity: 1; white-space: pre;">6</text></g><g class="ytick"><text text-anchor="end" x="79" y="4.199999999999999" transform="translate(0,58)" style="font-family: 'Open Sans', verdana, arial, sans-serif; font-size: 12px; fill: rgb(136, 136, 136); fill-opacity: 1; white-space: pre;">8</text></g><g class="ytick"><text text-anchor="end" x="79" y="4.199999999999999" transform="translate(0,25)" style="font-family: 'Open Sans', verdana, arial, sans-serif; font-size: 12px; fill: rgb(136, 136, 136); fill-opacity: 1; white-space: pre;">10</text></g></g><g class="overaxes-above"/></g></g><g class="polarlayer"/><g class="ternarylayer"/><g class="geolayer"/><g class="pielayer"/><g class="glimages"/><defs id="topdefs-107b41"><g class="clips"/></defs><g class="layer-above"><g class="imagelayer"/><g class="shapelayer"/></g><g class="infolayer"><g class="g-gtitle"/><g class="g-xtitle" transform="translate(0,-15)"><text class="xtitle" x="350" y="242" text-anchor="middle" style="font-family: Arial; font-size: 14px; fill: rgb(85, 85, 85); opacity: 1; font-weight: normal; white-space: pre;">\#agents per applicant</text></g><g class="g-ytitle"><text class="ytitle" transform="rotate(-90,50,107.5)" x="50" y="107.5" text-anchor="middle" style="font-family: Arial; font-size: 10px; fill: rgb(85, 85, 85); opacity: 1; font-weight: normal; white-space: pre;">\sqrt{avg\text{ of }collision^2}</text></g></g></svg>